<?xml version="1.0" encoding="UTF-8"?>
<svg id="Layer_2" data-name="Layer 2" xmlns="http://www.w3.org/2000/svg" xmlns:xlink="http://www.w3.org/1999/xlink" viewBox="0 0 69.22 107.08">
  <defs>
    <style>
      .cls-1 {
        fill: url(#radial-gradient);
      }
    </style>
    <radialGradient id="radial-gradient" cx="207.46" cy="-87.35" fx="207.46" fy="-87.35" r="439.68" gradientUnits="userSpaceOnUse">
      <stop offset="0" stop-color="#ffce41"/>
      <stop offset=".5" stop-color="#ec4158"/>
      <stop offset="1" stop-color="#704ae5"/>
    </radialGradient>
  </defs>
  <g id="Layer_4" data-name="Layer 4">
    <path class="cls-1" d="m59,53.83c-8.92-7.62-21.59-7.71-23.55-7.71-12.04,0-18.54-7.13-18.54-15.65.17-6.99,6.06-14.51,14.36-14.51,10.97,0,31.57-.07,36.61-.09.63,0,1.13-.51,1.13-1.14V0H30.34c-2.17,0-17.13,1.56-25.45,14.42C.64,20.98.05,27.6,0,30.94c-.18,12.28,7.82,20.08,9.05,21.23,7.28,6.83,17.51,8.69,22.68,8.69,12.55,0,20.03,6.03,20.03,14.66,0,7.66-5.85,15.56-14.9,15.56H2.81c-1.29,0-2.35,1.06-2.35,2.35v13.62h35.67c1.42.14,18.25.46,27.67-12.89,5.77-8.18,5.52-16.91,5.36-19.38-.78-12.29-8.69-19.69-10.16-20.95Z"/>
  </g>
</svg>